<svg width="24" height="24" viewBox="0 0 24 24" fill="none" xmlns="http://www.w3.org/2000/svg">
<path fill-rule="evenodd" clip-rule="evenodd" d="M18.248 16.9973C18.1653 16.9992 18.0827 17.0002 18 17.0003C11.925 17.0003 7 12.0753 7 6.00028C7 5.91728 7 5.83428 7.003 5.75228C6.12492 6.45531 5.40496 7.33562 4.89012 8.33573C4.37529 9.33585 4.07715 10.4333 4.01517 11.5564C3.95318 12.6796 4.12875 13.8032 4.5304 14.8539C4.93205 15.9046 5.55077 16.8587 6.34616 17.6541C7.14154 18.4495 8.09573 19.0682 9.14642 19.4699C10.1971 19.8715 11.3207 20.0471 12.4438 19.9851C13.567 19.9231 14.6644 19.625 15.6645 19.1102C16.6647 18.5953 17.545 17.8754 18.248 16.9973V16.9973ZM19.466 14.8813C17.8533 15.148 16.1984 14.9705 14.6789 14.3679C13.1595 13.7652 11.8328 12.76 10.8414 11.4603C9.85006 10.1607 9.23136 8.61554 9.05175 6.99081C8.87215 5.36608 9.13843 3.72311 9.822 2.23828C7.60243 2.73341 5.61794 3.97035 4.19593 5.74505C2.77392 7.51974 1.99935 9.72616 2 12.0003C2 17.5233 6.477 22.0003 12 22.0003C14.2741 22.0008 16.4804 21.2261 18.2551 19.8041C20.0297 18.3822 21.2667 16.3978 21.762 14.1783C21.0318 14.515 20.2595 14.7515 19.466 14.8813V14.8813Z" fill="black"/>
</svg>
