<svg width="32" height="32" viewBox="0 0 32 32" fill="none" xmlns="http://www.w3.org/2000/svg">
<path d="M16 12.0039C16.7911 12.0039 17.5645 12.2385 18.2223 12.678C18.8801 13.1176 19.3928 13.7423 19.6955 14.4732C19.9983 15.2041 20.0775 16.0083 19.9231 16.7843C19.7688 17.5602 19.3878 18.2729 18.8284 18.8323C18.269 19.3917 17.5563 19.7727 16.7804 19.927C16.0044 20.0814 15.2002 20.0022 14.4693 19.6994C13.7384 19.3967 13.1136 18.884 12.6741 18.2262C12.2346 17.5684 12 16.795 12 16.0039C12.0013 14.9434 12.4232 13.9268 13.173 13.1769C13.9229 12.4271 14.9395 12.0052 16 12.0039ZM16 10.0039C14.8133 10.0039 13.6533 10.3558 12.6666 11.0151C11.6799 11.6744 10.9108 12.6114 10.4567 13.7078C10.0026 14.8042 9.88378 16.0106 10.1153 17.1744C10.3468 18.3383 10.9182 19.4074 11.7574 20.2465C12.5965 21.0857 13.6656 21.6571 14.8295 21.8886C15.9933 22.1201 17.1997 22.0013 18.2961 21.5472C19.3925 21.0931 20.3295 20.324 20.9888 19.3373C21.6481 18.3506 22 17.1906 22 16.0039C22 14.4126 21.3679 12.8865 20.2426 11.7613C19.1174 10.636 17.5913 10.0039 16 10.0039ZM5.394 6.81191L6.81 5.39791L10.315 8.90391L8.9 10.3179L5.394 6.81191ZM2 15.0039H7V17.0039H2V15.0039ZM5.394 25.1969L8.9 21.6909L10.314 23.1049L6.809 26.6109L5.394 25.1969ZM15 25.0039H17V30.0039H15V25.0039ZM21.687 23.1039L23.101 21.6899L26.607 25.1959L25.193 26.6099L21.687 23.1039ZM25 15.0039H30V17.0039H25V15.0039ZM21.687 8.90291L25.193 5.39691L26.607 6.81091L23.101 10.3169L21.687 8.90291ZM15 2.00391H17V7.00391H15V2.00391Z" fill="black"/>
</svg>
